<svg width="121" height="118" viewBox="0 0 121 118" fill="none" xmlns="http://www.w3.org/2000/svg">
<g clip-path="url(#clip0_606_9719)">
<path d="M113.837 32.6404C112.704 30.5968 111.447 28.6245 110.073 26.7345C109.111 25.4085 108.093 24.1268 107.022 22.8893H107.019C105.08 20.6491 102.971 18.5617 100.711 16.6456C100.248 16.2528 99.7796 15.868 99.3046 15.4912C95.0165 12.0798 90.2612 9.30118 85.1839 7.24023L85.229 14.6595L85.7148 99.2349H43.6057L41.2375 14.8191L41.4139 7.5183C20.7692 16.201 6.27346 36.6157 6.27346 60.4174C6.26961 65.3301 6.89638 70.2231 8.1384 74.9762C8.663 76.9855 9.29813 78.9643 10.0409 80.9035C10.309 81.6074 10.5919 82.305 10.8895 82.9964C11.033 83.3329 11.1791 83.6668 11.3306 83.9993C11.525 84.4337 11.7275 84.8667 11.9353 85.2944C12.0962 85.6309 12.2616 85.9652 12.4314 86.2972C12.6499 86.733 12.8756 87.1652 13.1084 87.5937C13.2881 87.9303 13.4731 88.2641 13.6608 88.5966C16.689 93.9529 20.556 98.7894 25.1146 102.922C26.4137 104.101 27.7656 105.218 29.1703 106.274C39.1089 113.742 51.2043 117.78 63.6361 117.78C76.0679 117.78 88.1633 113.742 98.102 106.274C98.8662 105.7 99.6147 105.107 100.348 104.495C100.834 104.09 101.313 103.677 101.784 103.257C101.908 103.146 102.033 103.035 102.156 102.922C106.359 99.1122 109.976 94.7024 112.89 89.8354C113.96 88.0511 114.931 86.2088 115.797 84.317C116.026 83.8183 116.248 83.3151 116.463 82.8074C117.453 80.4797 118.285 78.0883 118.954 75.6493C119.057 75.2725 119.157 74.8944 119.253 74.515V74.5137C119.269 74.448 119.287 74.381 119.303 74.3153C119.402 73.9157 119.497 73.5135 119.588 73.1113V73.11C119.883 71.8135 120.132 70.5014 120.335 69.1736C120.361 69.0033 120.386 68.8331 120.41 68.6628C120.42 68.6011 120.429 68.5395 120.436 68.4778V68.4764C120.58 67.4508 120.698 66.4175 120.788 65.3767C120.928 63.7423 120.998 62.0892 120.999 60.4174C121.014 50.6998 118.549 41.1391 113.837 32.6404Z" fill="#F2F2F2"/>
<path d="M108.206 95.0445C111.601 90.4569 112.907 83.995 110.266 78.9355C107.789 84.6264 103.379 89.2578 97.8158 92.0102C95.6666 93.0639 93.1664 94.012 92.1716 96.1892C91.5526 97.5438 91.6705 99.1434 92.1681 100.547C92.6657 101.951 93.5121 103.2 94.3495 104.432L94.3936 104.801C99.6658 102.615 104.811 99.6321 108.206 95.0445Z" fill="#E6E6E6"/>
<path d="M110.152 78.9759C110 83.6975 108.364 88.2512 105.476 91.99C104.869 92.806 104.137 93.5211 103.307 94.109C102.48 94.6556 101.521 94.9708 100.531 95.0218C99.6093 95.0879 98.6584 95.0487 97.7683 95.3378C97.315 95.4925 96.8994 95.7413 96.5489 96.0679C96.1985 96.3946 95.921 96.7916 95.7347 97.2329C95.2419 98.3206 95.1694 99.5205 95.1392 100.696C95.1057 102.002 95.0916 103.358 94.4758 104.545C94.4012 104.689 94.6286 104.796 94.7031 104.653C95.7745 102.588 95.0788 100.173 95.7173 98.0028C96.0153 96.9899 96.6203 96.0607 97.6314 95.6548C98.5156 95.2999 99.4963 95.3395 100.431 95.2806C101.397 95.245 102.34 94.9733 103.178 94.4892C104.035 93.9455 104.793 93.2597 105.42 92.4615C106.861 90.6869 108.014 88.6968 108.836 86.5641C109.789 84.1353 110.318 81.5615 110.403 78.954C110.408 78.7927 110.157 78.8156 110.152 78.9759Z" fill="white"/>
<path d="M106.479 90.8414C107.172 91.2407 107.985 91.3807 108.771 91.2363C109.558 91.0918 110.268 90.6725 110.774 90.0531C110.876 89.9274 110.685 89.763 110.583 89.8889C110.113 90.4665 109.452 90.8571 108.719 90.9901C107.986 91.1231 107.23 90.9897 106.587 90.6141C106.447 90.5326 106.34 90.7604 106.479 90.8414Z" fill="white"/>
<path d="M101.004 95.0501C100.566 93.475 100.737 91.7924 101.483 90.3378C101.558 90.1937 101.33 90.0863 101.256 90.2302C100.482 91.7453 100.307 93.4967 100.768 95.1348C100.812 95.2909 101.048 95.2054 101.004 95.0501Z" fill="white"/>
<path d="M109.457 84.1488C109.157 84.0502 108.886 83.8785 108.668 83.6492C108.451 83.4199 108.293 83.1401 108.211 82.835C108.169 82.6784 107.932 82.7641 107.974 82.9197C108.067 83.2564 108.241 83.5651 108.481 83.819C108.72 84.0729 109.019 84.2642 109.35 84.3762C109.38 84.3893 109.414 84.3905 109.445 84.3793C109.476 84.3682 109.502 84.3457 109.517 84.3163C109.531 84.2861 109.533 84.2516 109.522 84.2202C109.51 84.1888 109.487 84.1632 109.457 84.1488Z" fill="white"/>
<path d="M91.3644 74.9082C91.3879 75.0067 91.4113 75.1052 91.4333 75.2054C91.7414 76.5315 91.9412 77.8805 92.0308 79.239C92.0394 79.3439 92.0466 79.4504 92.0521 79.5554C92.2331 82.8306 91.8045 86.111 90.788 89.2298C90.3823 90.4705 89.8829 91.6785 89.294 92.8434C88.4806 94.4521 87.4706 96.1317 87.2429 97.8641C87.2171 98.0446 87.2025 98.2265 87.1992 98.4088L93.9384 104.825C93.961 104.832 93.9822 104.84 94.005 104.847L94.2623 105.116C94.2969 105.058 94.3315 104.997 94.3661 104.939C94.3863 104.906 94.4049 104.871 94.4251 104.837C94.4381 104.814 94.451 104.791 94.4641 104.772C94.4684 104.764 94.4727 104.756 94.4756 104.75C94.4886 104.73 94.4986 104.711 94.5102 104.692C94.7045 104.353 94.8969 104.011 95.0872 103.668C95.0886 103.666 95.0886 103.666 95.0886 103.663C96.5318 101.042 97.7689 98.277 98.547 95.4123C98.5704 95.3261 98.5953 95.2384 98.6156 95.1493C98.9592 93.8561 99.1965 92.537 99.3252 91.2051C99.3933 90.4756 99.4244 89.7431 99.4184 89.0104C99.3994 87.1174 99.0827 85.2391 98.48 83.4445C97.2779 79.867 94.9451 76.7139 91.6198 75.034C91.5347 74.9911 91.451 74.9496 91.3644 74.9082Z" fill="#E6E6E6"/>
<path d="M91.298 75.0091C94.0193 78.8707 95.4546 83.4915 95.4002 88.2152C95.4066 89.2324 95.2525 90.2441 94.9438 91.2133C94.6126 92.1476 94.0372 92.9763 93.2774 93.613C92.5809 94.221 91.798 94.7622 91.2614 95.5289C90.9926 95.9254 90.8106 96.3743 90.7274 96.8461C90.6442 97.3179 90.6617 97.8019 90.7787 98.2665C91.0401 99.4316 91.7046 100.433 92.3885 101.39C93.1477 102.453 93.9532 103.545 94.1761 104.863C94.2031 105.023 94.4493 104.971 94.4224 104.812C94.0347 102.518 92.0254 101.009 91.2283 98.8916C90.8564 97.9035 90.78 96.7974 91.343 95.8645C91.8353 95.0487 92.6421 94.4899 93.3527 93.8805C94.103 93.2701 94.6924 92.4854 95.0695 91.5947C95.4266 90.6444 95.6193 89.6403 95.6395 88.6253C95.7214 86.341 95.4436 84.058 94.8162 81.8599C94.1142 79.3474 92.9875 76.9734 91.485 74.8408C91.3919 74.7088 91.2056 74.8781 91.298 75.0091Z" fill="white"/>
<path d="M95.5081 86.6967C96.3019 86.5982 97.0348 86.2208 97.576 85.6318C98.1172 85.0428 98.4314 84.2807 98.4626 83.4814C98.4683 83.3197 98.2173 83.3031 98.2115 83.4651C98.1839 84.2094 97.8911 84.9194 97.386 85.4668C96.881 86.0142 96.1968 86.363 95.4571 86.4503C95.2964 86.4695 95.3483 86.7157 95.5081 86.6967Z" fill="white"/>
<path d="M93.6719 93.3513C92.3732 92.3578 91.4968 90.9113 91.2172 89.3003C91.1897 89.1407 90.9434 89.1919 90.9709 89.3513C91.2649 91.0272 92.1801 92.5306 93.5338 93.5615C93.6629 93.6597 93.8003 93.4489 93.6719 93.3513Z" fill="white"/>
<path d="M93.8579 79.5569C93.5587 79.659 93.2388 79.6852 92.927 79.6331C92.6152 79.5811 92.3212 79.4523 92.0714 79.2586C91.9436 79.1588 91.8064 79.3697 91.9333 79.4688C92.2103 79.6816 92.5351 79.8234 92.8795 79.8817C93.2239 79.94 93.5773 79.913 93.9089 79.8032C93.941 79.7955 93.969 79.7759 93.9871 79.7482C94.0053 79.7206 94.0122 79.6871 94.0065 79.6546C93.9996 79.622 93.9801 79.5935 93.9523 79.5752C93.9245 79.5569 93.8905 79.5503 93.8579 79.5569Z" fill="white"/>
<path d="M2.67791 69.35C-0.333283 64.5017 -1.10959 57.955 1.93393 53.127C3.94018 59.0003 7.95927 63.9747 13.2801 67.1701C15.3366 68.395 17.7514 69.5432 18.566 71.794C19.0729 73.1944 18.8254 74.7791 18.2154 76.1378C17.6053 77.4965 16.6602 78.6727 15.7254 79.8322L15.6515 80.1966C10.5744 77.5894 5.6891 74.1984 2.67791 69.35Z" fill="#E6E6E6"/>
<path d="M2.04115 53.1769C1.80906 57.8953 3.06957 62.5668 5.64365 66.528C6.18265 67.3906 6.85425 68.1628 7.63372 68.8163C8.4136 69.4283 9.34313 69.8203 10.3257 69.9516C11.2395 70.0924 12.1904 70.1306 13.054 70.491C13.4933 70.6821 13.8873 70.9639 14.2101 71.3179C14.5328 71.6719 14.7771 72.0902 14.9269 72.5452C15.3297 73.6694 15.3045 74.8712 15.239 76.0456C15.1663 77.3495 15.0701 78.7028 15.5874 79.9357C15.6501 80.0851 15.4147 80.1736 15.3521 80.0245C14.452 77.8794 15.3416 75.5293 14.8817 73.3139C14.667 72.2802 14.1396 71.3049 13.1647 70.8182C12.3123 70.3926 11.3317 70.3523 10.4053 70.2177C9.44483 70.1037 8.52691 69.7563 7.7317 69.2057C6.92147 68.5941 6.22124 67.849 5.66099 67.0024C4.36929 65.1166 3.38213 63.0394 2.73568 60.8469C1.98402 58.3488 1.66524 55.7404 1.79313 53.1348C1.80111 52.9735 2.04908 53.0167 2.04115 53.1769Z" fill="white"/>
<path d="M4.7435 65.3023C4.02027 65.6439 3.19915 65.7174 2.42677 65.5095C1.65439 65.3016 0.981055 64.826 0.527007 64.1675C0.435593 64.0339 0.638836 63.8856 0.730372 64.0193C1.15205 64.6333 1.77931 65.0763 2.49894 65.2684C3.21858 65.4605 3.98318 65.389 4.65475 65.0669C4.80077 64.9971 4.88868 65.2328 4.7435 65.3023Z" fill="white"/>
<path d="M9.85485 69.9406C10.4202 68.4063 10.3864 66.7154 9.76035 65.2049C9.6982 65.0553 9.93364 64.9667 9.99572 65.1162C10.6443 66.6892 10.6758 68.449 10.084 70.0443C10.0275 70.1963 9.79865 70.0918 9.85485 69.9406Z" fill="white"/>
<path d="M2.31559 58.3883C2.62297 58.3145 2.90718 58.1654 3.14271 57.9545C3.37824 57.7437 3.55771 57.4776 3.66499 57.1802C3.71955 57.0276 3.94838 57.1322 3.89418 57.2839C3.77411 57.6119 3.57556 57.9055 3.31585 58.139C3.05614 58.3726 2.74319 58.539 2.40434 58.6237C2.37307 58.6344 2.33891 58.6327 2.30881 58.6191C2.27871 58.6055 2.25492 58.5809 2.24228 58.5504C2.23069 58.5192 2.23188 58.4847 2.24561 58.4543C2.25934 58.424 2.28449 58.4003 2.31559 58.3883Z" fill="white"/>
<path d="M21.0962 50.6504C21.0649 50.7467 21.0335 50.843 21.0034 50.941C20.5886 52.2377 20.2798 53.566 20.0801 54.9127C20.063 55.0166 20.0472 55.1221 20.0332 55.2263C19.5866 58.476 19.7472 61.7804 20.5069 64.9715C20.8104 66.241 21.21 67.4856 21.7023 68.6945C22.3823 70.364 23.2524 72.1201 23.3386 73.8654C23.3496 74.0473 23.3494 74.2298 23.3378 74.4118L16.0996 80.2591C16.0764 80.2641 16.0546 80.2709 16.0314 80.276L15.753 80.5226C15.7233 80.4621 15.6937 80.3986 15.664 80.338C15.6466 80.303 15.6308 80.2666 15.6134 80.2315C15.6023 80.2077 15.5913 80.1839 15.5799 80.163C15.5762 80.1551 15.5726 80.1472 15.5702 80.1409C15.5588 80.1201 15.5505 80.0995 15.5404 80.0803C15.3743 79.726 15.2103 79.3699 15.0486 79.0121C15.0473 79.0104 15.0473 79.0104 15.0476 79.0075C13.8221 76.2776 12.8138 73.4214 12.2711 70.503C12.2548 70.4151 12.2371 70.3257 12.2241 70.2353C11.9867 68.9184 11.8574 67.5844 11.8374 66.2465C11.8288 65.5138 11.8573 64.7812 11.9228 64.0515C12.0957 62.1662 12.5639 60.3199 13.3105 58.5802C14.7993 55.1122 17.3807 52.1591 20.8315 50.7551C20.9198 50.7192 21.0066 50.6846 21.0962 50.6504Z" fill="#E6E6E6"/>
<path d="M21.1576 50.7554C18.1316 54.383 16.3254 58.8719 15.9958 63.5845C15.9068 64.5977 15.9781 65.6186 16.207 66.6097C16.4613 67.5679 16.9674 68.4405 17.673 69.1369C18.3177 69.7995 19.054 70.4025 19.5265 71.2103C19.7622 71.6273 19.9072 72.0895 19.9517 72.5665C19.9963 73.0435 19.9395 73.5245 19.7852 73.9781C19.4299 75.1181 18.6862 76.0625 17.9269 76.9608C17.0838 77.9581 16.1922 78.9807 15.863 80.2766C15.8231 80.4336 15.5818 80.3626 15.6216 80.2058C16.1945 77.9512 18.3197 76.6103 19.2862 74.5646C19.7372 73.61 19.9033 72.5137 19.418 71.5381C18.9936 70.6851 18.2349 70.0626 17.5762 69.3973C16.878 68.7281 16.3542 67.898 16.0508 66.9796C15.7721 66.0035 15.6616 64.987 15.724 63.9737C15.828 61.6903 16.2905 59.4374 17.0943 57.2976C17.9982 54.8505 19.3141 52.5759 20.985 50.5724C21.0885 50.4485 21.2604 50.6323 21.1576 50.7554Z" fill="white"/>
<path d="M16.0107 62.0602C15.2275 61.8975 14.5277 61.4618 14.0361 60.8308C13.5446 60.1998 13.2933 59.4146 13.3273 58.6155C13.3289 58.5829 13.3432 58.5522 13.367 58.53C13.3909 58.5077 13.4224 58.4956 13.455 58.4961C13.4877 58.4966 13.5188 58.5098 13.5419 58.5329C13.565 58.5559 13.5782 58.587 13.5788 58.6196C13.5459 59.3637 13.78 60.0951 14.2389 60.6818C14.6978 61.2684 15.3513 61.6717 16.0815 61.8188C16.2401 61.851 16.1684 62.0922 16.0107 62.0602Z" fill="white"/>
<path d="M17.302 68.844C18.6771 67.9594 19.6682 66.5889 20.0777 65.006C20.1182 64.8491 20.3595 64.9201 20.3191 65.0768C19.8898 66.7233 18.8555 68.1473 17.4225 69.0648C17.2859 69.1521 17.1661 68.9309 17.302 68.844Z" fill="white"/>
<path d="M18.2384 55.0811C18.5283 55.2072 18.845 55.2593 19.16 55.2327C19.475 55.2062 19.7785 55.1018 20.0432 54.9289C20.1786 54.8399 20.2983 55.0612 20.1638 55.1497C19.8704 55.3393 19.5351 55.4542 19.1871 55.4843C18.8392 55.5144 18.4891 55.4589 18.1675 55.3225C18.1362 55.3122 18.1099 55.2903 18.094 55.2613C18.0782 55.2323 18.074 55.1984 18.0823 55.1664C18.0918 55.1345 18.1136 55.1076 18.1428 55.0916C18.172 55.0757 18.2064 55.0719 18.2384 55.0811Z" fill="white"/>
<path d="M58.5749 19.8608C62.9764 19.8608 66.5444 16.2928 66.5444 11.8914C66.5444 7.48993 62.9764 3.92188 58.5749 3.92188C54.1735 3.92188 50.6055 7.48993 50.6055 11.8914C50.6055 16.2928 54.1735 19.8608 58.5749 19.8608Z" fill="#868686"/>
<path d="M82.9776 11.4752C82.2595 10.7166 81.5014 9.99696 80.7064 9.31935C79.1539 8.00277 77.4351 6.88326 75.5192 6.17804C74.7979 5.91167 74.0525 5.71546 73.2936 5.59215C73.2024 5.57741 73.1126 5.56265 73.0214 5.55058C73.0147 5.54991 73.008 5.54991 73.0013 5.55058C72.9873 5.54662 72.9729 5.54392 72.9584 5.54254C72.772 5.51841 72.5857 5.49964 72.398 5.48623C71.3871 5.41903 70.372 5.51041 69.3894 5.75706C68.8193 5.9009 68.263 6.09471 67.7269 6.33624C67.1899 6.59917 66.6692 6.89421 66.1676 7.21978C65.8983 7.38338 65.6209 7.53328 65.3364 7.66892C64.5059 8.06243 63.6267 8.34377 62.722 8.50553C62.1111 8.61513 61.4924 8.6761 60.8718 8.68787C60.3329 8.6986 59.8247 8.71736 59.3139 8.91177C58.7687 9.1166 58.2791 9.44613 57.884 9.87402C57.4889 10.3019 57.1995 10.8163 57.0387 11.376C57.026 11.4257 57.0296 11.4782 57.0489 11.5257C57.0682 11.5732 57.1022 11.6133 57.146 11.6401C57.284 11.7393 57.4181 11.852 57.5643 11.9405C57.6932 11.9993 57.8309 12.0369 57.9718 12.0517C58.2024 12.1 58.4335 12.1469 58.665 12.1925C59.5163 12.3614 60.3713 12.5111 61.2298 12.6416C62.9566 12.9031 64.6933 13.0872 66.4398 13.194C66.4505 13.1956 66.4612 13.1965 66.472 13.1967C68.4451 13.3158 70.4229 13.335 72.398 13.2544C72.6969 13.2423 72.9946 13.2275 73.2936 13.2101C74.5391 13.1404 75.7815 13.0305 77.0208 12.8803C78.1671 12.7409 79.3089 12.5679 80.4463 12.3614C81.2588 12.214 82.0681 12.0495 82.8743 11.8681C82.9135 11.8565 82.949 11.835 82.9774 11.8057C83.0059 11.7764 83.0263 11.7402 83.0366 11.7007C83.047 11.6612 83.047 11.6197 83.0367 11.5802C83.0263 11.5407 83.006 11.5046 82.9776 11.4752Z" fill="#E6E6E6"/>
<path d="M66.4109 22.1024C65.2572 20.8682 63.986 19.7492 62.6154 18.7614C62.1608 18.4423 61.6929 18.142 61.2116 17.8671C60.6215 17.5265 60.0087 17.2268 59.3775 16.9702C59.2367 16.9125 59.0946 16.8575 58.9525 16.8053C58.1451 16.5062 57.3076 16.2958 56.4548 16.1778C56.4481 16.1765 56.4414 16.1778 56.4346 16.1765C56.4212 16.1738 56.4065 16.1711 56.3931 16.1684C55.9797 16.1148 55.5631 16.0893 55.1462 16.092C54.8472 16.092 54.5469 16.1081 54.2493 16.1376C53.7684 16.185 53.2916 16.2674 52.8227 16.3843C52.5908 16.4419 52.3602 16.509 52.1336 16.5854C51.8032 16.6941 51.4787 16.8203 51.1616 16.9635C51.1562 16.9661 51.1522 16.9675 51.1469 16.9702C50.6146 17.2306 50.0988 17.5234 49.6023 17.847C49.5916 17.8537 49.5796 17.8604 49.5688 17.8671C49.005 18.2044 48.4084 18.4838 47.7883 18.701C47.2561 18.8872 46.7101 19.0315 46.1554 19.1327C45.5445 19.2426 44.9258 19.3032 44.3052 19.3137C43.7662 19.3245 43.2581 19.3432 42.7486 19.539C42.2033 19.7438 41.7134 20.0733 41.3181 20.5011C40.9228 20.929 40.6331 21.4434 40.4721 22.0032C40.4596 22.0529 40.4633 22.1053 40.4826 22.1528C40.5019 22.2003 40.5358 22.2404 40.5793 22.2673C40.7174 22.3666 40.8528 22.4778 40.9976 22.5663C41.1264 22.6256 41.2641 22.6632 41.4052 22.6776C41.6358 22.7259 41.8664 22.7741 42.0983 22.8197C42.9497 22.9887 43.8051 23.1379 44.6645 23.2675C45.843 23.4458 47.0264 23.5884 48.2147 23.6952C48.7778 23.7475 49.3413 23.7904 49.9053 23.8239C51.352 23.9111 52.8 23.945 54.2493 23.9258C54.5483 23.9218 54.8472 23.9151 55.1462 23.9057C56.9213 23.8534 58.6911 23.7202 60.4555 23.5062C62.4221 23.2682 64.3754 22.9304 66.3077 22.4939C66.3468 22.4825 66.3822 22.4611 66.4106 22.4319C66.4391 22.4027 66.4594 22.3667 66.4698 22.3273C66.4802 22.2879 66.4802 22.2465 66.4699 22.2071C66.4596 22.1677 66.4393 22.1317 66.4109 22.1024Z" fill="#E6E6E6"/>
<path d="M46.5444 0.71329L53.5653 97.7356L39.5234 98.9819V1.94769C41.1967 0.640694 43.5985 0.436211 46.5444 0.71329Z" fill="#CCCCCC"/>
<path d="M81.2006 0.71329L74.1797 97.7356L88.2215 98.9819V1.94769C86.5483 0.640694 84.1465 0.436211 81.2006 0.71329Z" fill="#CCCCCC"/>
<path d="M88.5571 1.98945C88.1214 0.921128 87.195 0.183594 86.1237 0.183594H41.4818C39.9923 0.183594 38.7816 1.61277 38.7816 3.37114V99.8034C38.7686 100.695 39.1022 101.558 39.7121 102.209C40.0312 102.544 40.4352 102.787 40.8812 102.91C41.0768 102.964 41.2789 102.991 41.4818 102.991H86.1237C86.3267 102.991 86.5288 102.964 86.7244 102.91C87.9257 102.587 88.8239 101.318 88.8239 99.8034V3.37114C88.8252 2.89766 88.7346 2.42843 88.5571 1.98945ZM87.9283 99.8034C87.9283 100.978 87.1185 101.934 86.1237 101.934H41.4818C40.6573 101.934 39.9588 101.277 39.7456 100.383C39.7 100.193 39.6771 99.9985 39.6772 99.8034V3.37114C39.6772 2.19679 40.487 1.24242 41.4818 1.24242H86.1237C86.3068 1.24228 86.4885 1.27498 86.66 1.33897C87.3934 1.60803 87.9283 2.41678 87.9283 3.37114V99.8034Z" fill="#CCCCCC"/>
<path d="M88.3731 29.4961H39.2266V30.3924H88.3731V29.4961Z" fill="#CCCCCC"/>
<path d="M88.3731 10.9941H39.2266V11.8904H88.3731V10.9941Z" fill="#CCCCCC"/>
<path d="M88.3731 44.4336H39.2266V45.3299H88.3731V44.4336Z" fill="#CCCCCC"/>
<path d="M55.1775 0.585938H54.2812V57.1313H55.1775V0.585938Z" fill="#CCCCCC"/>
<path d="M73.3182 0.585938H72.4219V57.1313H73.3182V0.585938Z" fill="#CCCCCC"/>
<path d="M93.975 97.3906H35.1188C34.0496 97.3919 33.0246 97.8172 32.2685 98.5732C31.5125 99.3293 31.0872 100.354 31.0859 101.424C31.0854 101.938 31.1842 102.447 31.3769 102.924C31.6763 103.671 32.1927 104.312 32.8596 104.764C33.5265 105.216 34.3134 105.457 35.1188 105.458H93.975C94.6791 105.457 95.3708 105.273 95.9814 104.923C96.592 104.572 97.1002 104.068 97.4555 103.46C97.5567 103.288 97.6446 103.109 97.7183 102.924C97.911 102.447 98.0098 101.938 98.0093 101.424C98.0077 100.354 97.5821 99.3291 96.8258 98.5731C96.0696 97.8171 95.0444 97.3918 93.975 97.3906Z" fill="#CCCCCC"/>
<path d="M88.3712 55.041H39.5234V58.0286H88.3712V55.041Z" fill="#CCCCCC"/>
<path d="M63.5026 54.1445H64.3989C64.8347 54.1445 65.2526 54.3177 65.5608 54.6258C65.8689 54.934 66.0421 55.3519 66.0421 55.7877H61.8594C61.8594 55.5719 61.9019 55.3583 61.9845 55.1589C62.067 54.9595 62.1881 54.7784 62.3407 54.6258C62.4932 54.4732 62.6744 54.3522 62.8738 54.2696C63.0731 54.187 63.2868 54.1445 63.5026 54.1445Z" fill="#CCCCCC"/>
<path d="M64.812 63.4659C69.9247 63.4659 74.0694 59.3212 74.0694 54.2085C74.0694 49.0958 69.9247 44.9512 64.812 44.9512C59.6993 44.9512 55.5547 49.0958 55.5547 54.2085C55.5547 59.3212 59.6993 63.4659 64.812 63.4659Z" fill="#FFB8B8"/>
<path d="M54.4822 45.3039C54.5522 44.2409 55.2552 43.153 57.4888 42.5846C57.4888 42.5846 61.3221 37.6828 66.5311 40.2533C66.5311 40.2533 69.0564 39.8189 70.929 42.439C70.929 42.439 72.7856 41.344 73.5689 43.2848C73.5689 43.2848 75.7463 47.2437 74.9447 51.2817C74.143 55.3196 73.7327 55.8236 73.7327 55.8236C73.7327 55.8236 74.7545 47.4711 68.8692 48.0502C62.984 48.6294 58.2457 46.5597 56.913 51.0912C55.8063 54.8539 55.9457 56.8081 55.9457 56.8081C55.9457 56.8081 52.2449 53.0545 53.5031 50.0988C54.1467 48.587 54.3743 46.9434 54.4822 45.3039Z" fill="#868686"/>
<path d="M39.6367 104.8H90.8417C90.4995 100.894 90.2758 85.9631 90.2758 84.9804C90.2758 80.6462 86.7293 75.9163 86.7293 75.9163L85.4599 75.2147L74.8587 71.9072L72.1152 68.3435C71.8279 67.9692 71.4577 67.6667 71.0338 67.4597C70.6098 67.2527 70.1436 67.1469 69.6718 67.1505L61.0054 67.2155C60.2428 67.2214 59.5098 67.5118 58.9502 68.0299L53.5836 73.0084L45.7126 76.7671L45.6992 76.7537L45.617 76.8149L44.4488 77.6561L43.6975 78.1991C43.6975 78.1991 41.7264 80.564 40.151 87.657C39.9139 88.7238 39.7476 102.534 39.6367 104.8Z" fill="#868686"/>
<path d="M102.694 102.924C102.571 103.036 102.446 103.148 102.321 103.259C101.849 103.679 101.371 104.091 100.885 104.496C100.152 105.108 99.4035 105.701 98.6397 106.276H29.708C28.3043 105.222 26.9524 104.105 25.6523 102.924H102.694Z" fill="#CCCCCC"/>
<path d="M77.4255 103.727H52.0859L52.6221 101.18H76.8891L77.4255 103.727Z" fill="#868686"/>
<path d="M100.352 92.7344H93.7588C93.61 92.7339 93.4629 92.7661 93.3278 92.8287C93.1928 92.8912 93.0731 92.9826 92.9772 93.0964C92.8853 93.0786 92.7919 93.0697 92.6983 93.0696C92.4928 93.0694 92.2893 93.1097 92.0993 93.1882C91.9094 93.2667 91.7368 93.3818 91.5914 93.5271C91.446 93.6723 91.3307 93.8448 91.252 94.0347C91.1733 94.2245 91.1328 94.428 91.1328 94.6335C91.1328 94.839 91.1733 95.0425 91.252 95.2324C91.3307 95.4222 91.446 95.5947 91.5914 95.7399C91.7368 95.8852 91.9094 96.0003 92.0993 96.0788C92.2893 96.1573 92.4928 96.1977 92.6983 96.1975C92.9344 96.1974 93.1674 96.1433 93.3794 96.0392L93.4893 97.3907L93.9264 102.732C93.9471 102.799 93.975 102.863 94.0095 102.924C94.0978 103.086 94.2283 103.221 94.3871 103.316C94.5458 103.41 94.7271 103.46 94.9118 103.46H99.1994C99.3843 103.46 99.5657 103.41 99.7246 103.316C99.8836 103.221 100.014 103.086 100.103 102.924C100.137 102.863 100.164 102.799 100.185 102.732L101.338 94.0684C101.385 93.9142 101.396 93.751 101.369 93.592C101.342 93.433 101.278 93.2825 101.182 93.1528C101.086 93.023 100.961 92.9176 100.817 92.8449C100.673 92.7722 100.514 92.7344 100.352 92.7344ZM92.6983 95.751C92.4021 95.7507 92.1182 95.6328 91.9089 95.4232C91.6996 95.2137 91.5821 94.9297 91.5821 94.6335C91.5821 94.3374 91.6996 94.0533 91.9089 93.8438C92.1182 93.6342 92.4021 93.5164 92.6983 93.516C92.7184 93.516 92.7372 93.5214 92.7573 93.5227C92.7131 93.7027 92.7187 93.8913 92.7734 94.0684L93.2453 95.6022C93.0791 95.6988 92.8905 95.7501 92.6983 95.751Z" fill="#868686"/>
<path d="M85.4592 64.3867H43.72C43.3614 64.3873 43.0176 64.53 42.764 64.7836C42.5105 65.0371 42.3678 65.3809 42.3672 65.7395V93.9053C42.3675 94.264 42.5102 94.6079 42.7638 94.8615C43.0174 95.1151 43.3613 95.2577 43.72 95.2581H85.4592C85.8179 95.2577 86.1618 95.1151 86.4154 94.8615C86.669 94.6079 86.8117 94.264 86.812 93.9053V65.7395C86.8114 65.3809 86.6687 65.0371 86.4152 64.7836C86.1616 64.53 85.8178 64.3873 85.4592 64.3867Z" fill="#868686"/>
<path d="M69.2925 86.9551H59.528C59.3899 86.9553 59.2575 87.0103 59.1599 87.1081C59.0624 87.206 59.0077 87.3385 59.0078 87.4766V102.902H69.814V87.4766C69.814 87.4081 69.8006 87.3403 69.7744 87.277C69.7482 87.2137 69.7098 87.1562 69.6613 87.1078C69.6129 87.0593 69.5554 87.0209 69.4921 86.9947C69.4288 86.9685 69.361 86.955 69.2925 86.9551ZM64.4431 95.7194C64.1377 95.7179 63.8453 95.596 63.6294 95.3801C63.4134 95.1642 63.2915 94.8717 63.2901 94.5663V92.7872C63.2904 92.4816 63.4121 92.1887 63.6282 91.9727C63.8444 91.7568 64.1375 91.6355 64.4431 91.6355C64.7487 91.6355 65.0417 91.7568 65.2579 91.9727C65.4741 92.1887 65.5958 92.4816 65.5961 92.7872V94.5663C65.5947 94.8717 65.4728 95.1642 65.2568 95.3801C65.0409 95.596 64.7485 95.7179 64.4431 95.7194Z" fill="#868686"/>
<path d="M58.9727 102.408V103.896C58.9728 103.974 59.0035 104.047 59.058 104.102C59.1126 104.156 59.1865 104.187 59.2636 104.187H69.555C69.632 104.187 69.7058 104.156 69.7602 104.102C69.8147 104.047 69.8455 103.973 69.8459 103.896V102.408H58.9727Z" fill="#868686"/>
<path d="M84.573 93.6108C84.9369 93.6108 85.2319 93.3158 85.2319 92.9519C85.2319 92.588 84.9369 92.293 84.573 92.293C84.2091 92.293 83.9141 92.588 83.9141 92.9519C83.9141 93.3158 84.2091 93.6108 84.573 93.6108Z" fill="#868686"/>
<path d="M48.9884 91.9961C48.9581 91.9961 48.9281 92.0021 48.9002 92.0136C48.8722 92.0252 48.8468 92.0422 48.8254 92.0636C48.8039 92.085 48.787 92.1105 48.7754 92.1384C48.7638 92.1664 48.7578 92.1964 48.7578 92.2267V93.4132C48.758 93.4743 48.7823 93.5328 48.8256 93.5759C48.8688 93.619 48.9274 93.6432 48.9884 93.6432C49.0495 93.6432 49.108 93.619 49.1513 93.5759C49.1945 93.5328 49.2189 93.4743 49.219 93.4132V92.2267C49.219 92.1964 49.2131 92.1664 49.2015 92.1384C49.1899 92.1105 49.1729 92.085 49.1515 92.0636C49.1301 92.0422 49.1046 92.0252 49.0767 92.0136C49.0487 92.002 49.0187 91.9961 48.9884 91.9961Z" fill="#868686"/>
<path d="M50.2384 91.9961C50.2081 91.9961 50.1781 92.0021 50.1502 92.0136C50.1222 92.0252 50.0968 92.0422 50.0754 92.0636C50.0539 92.085 50.037 92.1105 50.0254 92.1384C50.0138 92.1664 50.0078 92.1964 50.0078 92.2267V93.4132C50.0078 93.4744 50.0321 93.5331 50.0754 93.5763C50.1186 93.6195 50.1773 93.6438 50.2384 93.6438C50.2996 93.6438 50.3582 93.6195 50.4015 93.5763C50.4447 93.5331 50.469 93.4744 50.469 93.4132V92.2267C50.469 92.1964 50.4631 92.1664 50.4515 92.1384C50.4399 92.1105 50.4229 92.085 50.4015 92.0636C50.3801 92.0422 50.3546 92.0252 50.3267 92.0136C50.2987 92.0021 50.2687 91.9961 50.2384 91.9961Z" fill="#868686"/>
<path d="M51.4923 91.9961C51.462 91.9961 51.4321 92.0021 51.4041 92.0136C51.3761 92.0252 51.3507 92.0422 51.3293 92.0636C51.3078 92.085 51.2909 92.1105 51.2793 92.1384C51.2677 92.1664 51.2617 92.1964 51.2617 92.2267V93.4132C51.2619 93.4743 51.2862 93.5328 51.3295 93.5759C51.3727 93.619 51.4313 93.6432 51.4923 93.6432C51.5534 93.6432 51.6119 93.619 51.6552 93.5759C51.6984 93.5328 51.7228 93.4743 51.7229 93.4132V92.2267C51.7229 92.1964 51.717 92.1664 51.7054 92.1384C51.6938 92.1105 51.6768 92.085 51.6554 92.0636C51.634 92.0422 51.6086 92.0252 51.5806 92.0136C51.5526 92.002 51.5226 91.9961 51.4923 91.9961Z" fill="#868686"/>
<path d="M52.7462 91.9961C52.7159 91.9961 52.686 92.0021 52.658 92.0136C52.63 92.0252 52.6046 92.0422 52.5832 92.0636C52.5618 92.085 52.5448 92.1105 52.5332 92.1384C52.5216 92.1664 52.5156 92.1964 52.5156 92.2267V93.4132C52.5158 93.4743 52.5401 93.5328 52.5834 93.5759C52.6266 93.619 52.6852 93.6432 52.7462 93.6432C52.8073 93.6432 52.8659 93.619 52.9091 93.5759C52.9523 93.5328 52.9767 93.4743 52.9768 93.4132V92.2267C52.9768 92.1964 52.9709 92.1664 52.9593 92.1384C52.9477 92.1105 52.9307 92.085 52.9093 92.0636C52.8879 92.0422 52.8625 92.0252 52.8345 92.0136C52.8065 92.0021 52.7765 91.9961 52.7462 91.9961Z" fill="#868686"/>
<path d="M53.7437 103.058C55.6689 103.058 57.2295 101.497 57.2295 99.5718C57.2295 97.6466 55.6689 96.0859 53.7437 96.0859C51.8185 96.0859 50.2578 97.6466 50.2578 99.5718C50.2578 101.497 51.8185 103.058 53.7437 103.058Z" fill="#FFB8B8"/>
<path d="M78.0952 103.728C80.0204 103.728 81.5811 102.167 81.5811 100.242C81.5811 98.3165 80.0204 96.7559 78.0952 96.7559C76.1701 96.7559 74.6094 98.3165 74.6094 100.242C74.6094 102.167 76.1701 103.728 78.0952 103.728Z" fill="#FFB8B8"/>
<path d="M114.079 58.1658C113.734 57.5961 113.326 56.9878 112.687 56.8018C111.947 56.5863 111.186 57.0143 110.541 57.4366C108.612 58.6996 106.754 60.0683 104.977 61.5365L104.979 61.5586C106.363 61.4632 107.511 65.1436 108.895 65.0481C109.896 64.9792 111.165 61.1248 112.049 60.6518C112.384 60.4723 112.711 60.2325 113.091 60.2157C113.563 60.195 113.975 60.5247 114.299 60.8692C116.212 62.907 116.766 66.0233 118.913 67.8137C117.559 64.475 115.943 61.2489 114.079 58.1658Z" fill="#868686"/>
<path d="M117.764 63.1153C118.774 64.9387 119.845 66.7259 120.977 68.4769V68.4782C120.97 68.5399 120.96 68.6016 120.951 68.6632C120.814 68.4541 120.679 68.244 120.545 68.0331C119.529 66.439 118.563 64.8145 117.648 63.1596C117.213 62.3726 116.79 61.5793 116.377 60.7798C116.057 60.1604 115.745 59.5374 115.439 58.9108C115.352 58.7312 115.268 58.5515 115.183 58.3705C114.985 57.9469 114.789 57.5205 114.58 57.1022C114.341 56.6249 114.05 56.1262 113.612 55.8057C113.413 55.6538 113.174 55.5617 112.924 55.5403C112.572 55.5424 112.228 55.6412 111.928 55.8258C109.66 57.018 107.543 58.4777 105.623 60.1738C103.7 61.8632 101.981 63.7714 100.501 65.8598C100.456 65.9241 100.348 65.8625 100.394 65.7968C100.575 65.542 100.757 65.2913 100.945 65.0419C103.271 61.9484 106.123 59.2882 109.371 57.1826C109.917 56.8287 110.473 56.4913 111.041 56.1704C111.326 56.0082 111.613 55.8486 111.905 55.6985C112.185 55.5345 112.499 55.4372 112.822 55.4142C113.935 55.3968 114.512 56.6571 114.907 57.5044C115.03 57.7712 115.156 58.0376 115.284 58.3035C115.765 59.309 116.265 60.3065 116.784 61.296C117.103 61.906 117.43 62.5125 117.764 63.1153Z" fill="#868686"/>
<path d="M105.508 59.551C105.443 59.4789 105.379 59.4069 105.314 59.3348C104.801 58.7674 104.25 58.2067 103.546 57.8814C103.21 57.7214 102.843 57.6364 102.471 57.6323C102.087 57.6428 101.709 57.7253 101.355 57.8756C101.187 57.9427 101.023 58.0189 100.861 58.1C100.676 58.1931 100.495 58.2923 100.314 58.3923C99.9748 58.5801 99.6399 58.7761 99.3094 58.9803C98.6519 59.3867 98.0149 59.8241 97.3985 60.2926C97.079 60.5355 96.7661 60.7864 96.4597 61.0452C96.1748 61.2857 95.8957 61.5326 95.6223 61.786C95.5638 61.8399 95.4765 61.7526 95.535 61.6987C95.607 61.6316 95.6799 61.5648 95.7528 61.499C95.9587 61.3129 96.1678 61.1303 96.3803 60.9513C96.7677 60.6244 97.1652 60.3101 97.5727 60.0085C98.2064 59.5391 98.8619 59.1015 99.5392 58.6958C99.8777 58.4932 100.221 58.2992 100.569 58.1136C100.674 58.0576 100.78 58.0028 100.887 57.951C101.131 57.828 101.384 57.7248 101.645 57.6426C102.014 57.5232 102.404 57.4849 102.789 57.5302C103.161 57.5842 103.519 57.7082 103.845 57.8954C104.537 58.282 105.073 58.8799 105.595 59.4633C105.648 59.5226 105.561 59.6103 105.508 59.551Z" fill="#868686"/>
<path d="M100.446 62.2817C100.27 62.2904 100.096 62.2407 99.9516 62.1402C99.5688 61.8502 99.5788 61.1536 99.9822 60.0106C100.092 59.7009 100.264 59.417 100.488 59.1765C100.712 58.9359 100.983 58.7438 101.284 58.612C101.566 58.4859 101.871 58.4198 102.179 58.418C102.488 58.4162 102.794 58.4786 103.078 58.6013C103.127 58.6228 103.176 58.6458 103.224 58.6705C103.552 58.8543 103.86 59.0725 104.141 59.3215C104.381 59.5293 104.636 59.718 104.906 59.8858L104.995 59.9385L104.91 59.9984C102.738 61.5274 101.266 62.2817 100.446 62.2817Z" fill="#868686"/>
<path d="M108.802 53.1837C108.088 53.1836 107.396 52.9356 106.844 52.4822C106.292 52.0287 105.915 51.3979 105.776 50.6973C105.179 50.8182 104.631 51.1133 104.202 51.5453C103.772 51.9773 103.48 52.5269 103.363 53.1247C103.245 53.7225 103.307 54.3417 103.541 54.9042C103.775 55.4667 104.171 55.9473 104.678 56.2853C105.184 56.6233 105.78 56.8036 106.389 56.8034C106.999 56.8032 107.594 56.6225 108.101 56.2842C108.608 55.9458 109.003 55.465 109.236 54.9024C109.47 54.3397 109.532 53.7204 109.414 53.1227C109.212 53.1633 109.007 53.1837 108.802 53.1837Z" fill="#868686"/>
<path opacity="0.74" d="M26.254 58.1428C28.7955 58.1428 30.8557 56.0826 30.8557 53.5411C30.8557 50.9997 28.7955 48.9395 26.254 48.9395C23.7126 48.9395 21.6523 50.9997 21.6523 53.5411C21.6523 56.0826 23.7126 58.1428 26.254 58.1428Z" fill="#868686"/>
<path opacity="0.74" d="M30.8556 58.1428C33.397 58.1428 35.4573 56.0826 35.4573 53.5411C35.4573 50.9997 33.397 48.9395 30.8556 48.9395C28.3142 48.9395 26.2539 50.9997 26.2539 53.5411C26.2539 56.0826 28.3142 58.1428 30.8556 58.1428Z" fill="#868686"/>
<path opacity="0.74" d="M28.5939 54.4749C31.1353 54.4749 33.1956 52.4146 33.1956 49.8732C33.1956 47.3317 31.1353 45.2715 28.5939 45.2715C26.0524 45.2715 23.9922 47.3317 23.9922 49.8732C23.9922 52.4146 26.0524 54.4749 28.5939 54.4749Z" fill="#868686"/>
<path d="M40.6246 48.5542L28.8047 52.2676L28.8851 52.5234L40.705 48.81L40.6246 48.5542Z" fill="#868686"/>
<path d="M40.7003 49.1761C40.9965 49.1761 41.2366 48.936 41.2366 48.6398C41.2366 48.3436 40.9965 48.1035 40.7003 48.1035C40.4042 48.1035 40.1641 48.3436 40.1641 48.6398C40.1641 48.936 40.4042 49.1761 40.7003 49.1761Z" fill="#868686"/>
<path d="M117.436 72.7718C118.222 73.3255 118.977 73.89 119.84 74.3163C119.824 74.382 119.807 74.4491 119.791 74.5148C119.685 74.4652 119.581 74.4129 119.478 74.3592C118.603 73.9007 117.849 73.2773 117.027 72.7356C116.62 72.454 116.175 72.2311 115.705 72.0733C115.216 71.9262 114.705 71.8663 114.194 71.8963C112.067 72.0009 110.243 73.2706 108.266 73.9101C107.298 74.2238 106.268 74.3914 105.259 74.1943C104.249 73.9972 103.352 73.461 102.461 72.9756C101.581 72.4956 100.622 72.013 99.5954 72.013C98.7588 72.0143 97.8793 72.3495 97.4315 73.0896C97.4176 73.1117 97.3956 73.1275 97.3702 73.1337C97.3448 73.1398 97.318 73.1359 97.2955 73.1226C97.273 73.1093 97.2566 73.0878 97.2497 73.0626C97.2428 73.0375 97.2459 73.0106 97.2585 72.9877C97.3587 72.819 97.4819 72.6651 97.6245 72.5305C98.2091 71.9768 99.0685 71.7582 99.8582 71.8226C100.88 71.9057 101.812 72.3884 102.695 72.8737C103.632 73.3886 104.592 73.9423 105.676 74.0549C106.745 74.1675 107.805 73.8873 108.797 73.5106C110.718 72.7799 112.614 71.5625 114.751 71.6979C115.759 71.7623 116.623 72.1993 117.436 72.7718Z" fill="#868686"/>
<path d="M33.3416 33.9979V34.2701C33.2515 34.2523 33.1599 34.2433 33.0681 34.2433H31.6657V37.2545C31.6654 37.7003 31.4882 38.1278 31.173 38.4431C30.8577 38.7583 30.4302 38.9355 29.9844 38.9358H27.9117V39.3997C27.9117 39.5856 27.9486 39.7697 28.0203 39.9413H27.7333C27.6734 39.767 27.643 39.584 27.6435 39.3997V38.9358H26.5039V38.6676H27.6435V35.6564C27.6438 35.2106 27.821 34.7831 28.1362 34.4678C28.4515 34.1526 28.879 33.9754 29.3248 33.9751H31.3975V33.5059H31.6657V33.9751H33.0681C33.1597 33.9752 33.2512 33.9828 33.3416 33.9979Z" fill="#868686"/>
<path d="M29.9871 31.8281H26.2438C25.7979 31.8284 25.3705 32.0056 25.0552 32.3208C24.74 32.6361 24.5628 33.0636 24.5625 33.5094V37.2527C24.5628 37.6985 24.74 38.126 25.0552 38.4412C25.3705 38.7565 25.7979 38.9337 26.2438 38.9339H29.9871C30.4329 38.9337 30.8604 38.7565 31.1756 38.4412C31.4908 38.126 31.6681 37.6985 31.6683 37.2527V33.504C31.6667 33.0591 31.4889 32.633 31.1738 32.3189C30.8587 32.0048 30.432 31.8283 29.9871 31.8281ZM31.4002 37.2527C31.3997 37.6273 31.2506 37.9864 30.9857 38.2513C30.7208 38.5162 30.3617 38.6653 29.9871 38.6658H26.2438C25.8691 38.6653 25.51 38.5162 25.2451 38.2513C24.9802 37.9864 24.8311 37.6273 24.8306 37.2527V33.5094C24.8311 33.1348 24.9802 32.7756 25.2451 32.5107C25.51 32.2458 25.8691 32.0968 26.2438 32.0963H29.9871C30.3608 32.0967 30.7191 32.245 30.9839 32.5087C31.2487 32.7725 31.3983 33.1303 31.4002 33.504V37.2527Z" fill="#868686"/>
<path d="M27.6406 38.6671V38.9353H27.9088V38.6671H27.6406ZM27.6406 38.6671V38.9353H27.9088V38.6671H27.6406ZM33.3387 33.9974C33.2483 33.9823 33.1568 33.9747 33.0652 33.9746H29.3219C28.8761 33.9749 28.4486 34.1521 28.1333 34.4673C27.8181 34.7826 27.6409 35.21 27.6406 35.6559V39.3992C27.6401 39.5835 27.6705 39.7665 27.7305 39.9408C27.8436 40.2731 28.0579 40.5616 28.3433 40.766C28.6287 40.9703 28.9709 41.0803 29.3219 41.0804H33.0652C33.511 41.0802 33.9385 40.9029 34.2537 40.5877C34.569 40.2725 34.7462 39.845 34.7464 39.3992V35.6559C34.7463 35.2575 34.6047 34.872 34.3469 34.5683C34.0891 34.2645 33.7318 34.0622 33.3387 33.9974ZM34.4783 39.3992C34.4778 39.7738 34.3287 40.1329 34.0638 40.3978C33.7989 40.6627 33.4398 40.8118 33.0652 40.8123H29.3219C28.9473 40.8117 28.5881 40.6627 28.3233 40.3978C28.0584 40.1329 27.9093 39.7738 27.9088 39.3992V35.6559C27.9093 35.2812 28.0583 34.9221 28.3232 34.6572C28.5881 34.3923 28.9473 34.2433 29.3219 34.2428H33.0652C33.4399 34.2429 33.7993 34.3918 34.0642 34.6568C34.3292 34.9218 34.4782 35.2811 34.4783 35.6559V39.3992ZM27.6406 38.6671V38.9353H27.9088V38.6671H27.6406Z" fill="#868686"/>
<path d="M24.995 73.6172H9.09408C8.9834 73.6173 8.87724 73.6612 8.79885 73.7393C8.72045 73.8174 8.6762 73.9235 8.67578 74.0341V74.9767C9.20038 76.986 9.83551 78.9647 10.5783 80.904H24.995C25.0498 80.9041 25.104 80.8933 25.1546 80.8724C25.2052 80.8514 25.2512 80.8207 25.29 80.782C25.3287 80.7433 25.3594 80.6973 25.3803 80.6467C25.4013 80.596 25.412 80.5418 25.412 80.487V74.0341C25.4118 73.9236 25.3679 73.8176 25.2897 73.7394C25.2115 73.6613 25.1055 73.6173 24.995 73.6172Z" fill="#868686"/>
<path d="M23.4827 82.9962H11.4297C11.5731 83.3327 11.7193 83.6665 11.8708 83.999H23.4827C24.137 84.0084 24.1303 82.9868 23.4827 82.9962Z" fill="#E4E4E4"/>
<path d="M23.48 85.295H12.4727C12.6335 85.6315 12.7989 85.9658 12.9687 86.2978H23.48C24.1342 86.3072 24.1275 85.2869 23.48 85.295Z" fill="#E4E4E4"/>
<path d="M23.4826 87.5938H13.6484C13.8281 87.9303 14.0131 88.2642 14.2008 88.5967H23.4826C24.1369 88.6061 24.1302 87.5844 23.4826 87.5938Z" fill="#E4E4E4"/>
<path d="M105.914 25.793H105.837C106.075 25.7932 106.31 25.8486 106.522 25.955H106.175C105.8 25.9554 105.441 26.1044 105.176 26.3693C104.911 26.6342 104.762 26.9934 104.762 27.368V31.1114C104.762 31.4861 104.911 31.8452 105.176 32.1102C105.441 32.3751 105.8 32.5241 106.175 32.5245H106.396C106.218 32.5944 106.029 32.6304 105.837 32.6306H105.914C106.324 32.6302 106.717 32.467 107.007 32.177C107.297 31.8869 107.46 31.4937 107.461 31.0835V27.3401C107.46 26.9299 107.297 26.5367 107.007 26.2466C106.717 25.9566 106.324 25.7934 105.914 25.793Z" fill="#868686"/>
<path opacity="0.21" d="M105.914 25.793H105.837C106.075 25.7932 106.31 25.8486 106.522 25.955H106.175C105.8 25.9554 105.441 26.1044 105.176 26.3693C104.911 26.6342 104.762 26.9934 104.762 27.368V31.1114C104.762 31.4861 104.911 31.8452 105.176 32.1102C105.441 32.3751 105.8 32.5241 106.175 32.5245H106.396C106.218 32.5944 106.029 32.6304 105.837 32.6306H105.914C106.324 32.6302 106.717 32.467 107.007 32.177C107.297 31.8869 107.46 31.4937 107.461 31.0835V27.3401C107.46 26.9299 107.297 26.5367 107.007 26.2466C106.717 25.9566 106.324 25.7934 105.914 25.793Z" fill="#868686"/>
<path d="M95.9959 25.793H95.9195C96.1573 25.7932 96.3918 25.8486 96.6045 25.955H96.2568C95.8822 25.9554 95.523 26.1044 95.2581 26.3693C94.9932 26.6342 94.8442 26.9934 94.8438 27.368V31.1114C94.8442 31.4861 94.9932 31.8452 95.2581 32.1102C95.523 32.3751 95.8822 32.5241 96.2568 32.5245H96.4784C96.3004 32.5944 96.1108 32.6304 95.9195 32.6306H95.9959C96.406 32.6302 96.7993 32.467 97.0893 32.177C97.3794 31.8869 97.5425 31.4937 97.543 31.0835V27.3401C97.5425 26.9299 97.3794 26.5367 97.0893 26.2466C96.7993 25.9566 96.406 25.7934 95.9959 25.793Z" fill="#868686"/>
<path opacity="0.21" d="M95.9959 25.793H95.9195C96.1573 25.7932 96.3918 25.8486 96.6045 25.955H96.2568C95.8822 25.9554 95.523 26.1044 95.2581 26.3693C94.9932 26.6342 94.8442 26.9934 94.8438 27.368V31.1114C94.8442 31.4861 94.9932 31.8452 95.2581 32.1102C95.523 32.3751 95.8822 32.5241 96.2568 32.5245H96.4784C96.3004 32.5944 96.1108 32.6304 95.9195 32.6306H95.9959C96.406 32.6302 96.7993 32.467 97.0893 32.177C97.3794 31.8869 97.5425 31.4937 97.543 31.0835V27.3401C97.5425 26.9299 97.3794 26.5367 97.0893 26.2466C96.7993 25.9566 96.406 25.7934 95.9959 25.793Z" fill="#868686"/>
<path d="M96.2685 32.5362C95.8939 32.5358 95.5347 32.3868 95.2698 32.1219C95.0049 31.857 94.8559 31.4978 94.8554 31.1232V27.3798C94.8559 27.0051 95.0049 26.6459 95.2698 26.381C95.5347 26.1161 95.8939 25.9671 96.2685 25.9667H96.6162C96.4035 25.8604 96.169 25.8049 95.9312 25.8047H92.1878C91.7776 25.8052 91.3843 25.9683 91.0943 26.2584C90.8043 26.5484 90.6411 26.9416 90.6406 27.3518V31.0952C90.6411 31.5054 90.8043 31.8986 91.0943 32.1887C91.3843 32.4787 91.7776 32.6419 92.1878 32.6424H95.9312C96.1225 32.6421 96.3121 32.6061 96.4902 32.5362L96.2685 32.5362Z" fill="#868686"/>
<path d="M106.19 32.5362C105.816 32.5358 105.457 32.3868 105.192 32.1219C104.927 31.857 104.778 31.4978 104.777 31.1232V27.3798C104.778 27.0051 104.927 26.6459 105.192 26.381C105.457 26.1161 105.816 25.9671 106.19 25.9667H106.538C106.325 25.8604 106.091 25.8049 105.853 25.8047H102.11C101.699 25.8052 101.306 25.9683 101.016 26.2584C100.726 26.5484 100.563 26.9416 100.562 27.3518V31.0952C100.563 31.5054 100.726 31.8986 101.016 32.1887C101.306 32.4787 101.699 32.6419 102.11 32.6424H105.853C106.044 32.6421 106.234 32.6061 106.412 32.5362L106.19 32.5362Z" fill="#868686"/>
<path d="M110.612 26.7344C111.986 28.6244 113.242 30.5967 114.375 32.6402H112.032C111.621 32.6396 111.228 32.4764 110.938 32.1864C110.648 31.8964 110.485 31.5032 110.484 31.0931V27.3498C110.484 27.1381 110.528 26.9286 110.612 26.7344Z" fill="#868686"/>
<path d="M105.908 34.6043L104.597 32.6402L103.638 31.2042C103.582 31.1204 103.504 31.0541 103.412 31.013C103.32 30.972 103.218 30.9579 103.118 30.9723C103.018 30.9868 102.925 31.0292 102.848 31.0947C102.772 31.1602 102.715 31.246 102.685 31.3423L102.282 32.6402L101.469 35.2479C101.437 35.3517 101.437 35.463 101.47 35.5666C101.503 35.6703 101.567 35.7615 101.652 35.8281C101.738 35.8947 101.843 35.9335 101.951 35.9393C102.06 35.9451 102.168 35.9176 102.26 35.8606L102.548 35.6822C102.606 35.6465 102.673 35.6261 102.741 35.6231C102.809 35.6201 102.877 35.6345 102.937 35.665C102.998 35.6954 103.051 35.741 103.089 35.7973C103.127 35.8536 103.151 35.9187 103.157 35.9866L103.421 38.8691C103.434 39.0015 103.495 39.1246 103.593 39.2143C103.691 39.304 103.819 39.354 103.952 39.3545C103.968 39.3545 103.984 39.3531 104.002 39.3518L104.407 39.3156C104.476 39.3093 104.544 39.2892 104.606 39.2566C104.669 39.224 104.724 39.1794 104.768 39.1255C104.813 39.0715 104.847 39.0093 104.868 38.9423C104.889 38.8753 104.896 38.8049 104.889 38.7351L104.617 35.7587C104.611 35.6888 104.623 35.6184 104.652 35.5546C104.682 35.4908 104.727 35.4359 104.785 35.3954C104.842 35.3549 104.909 35.3303 104.979 35.3239C105.049 35.3175 105.119 35.3297 105.183 35.3591L105.242 35.3859C105.348 35.4346 105.466 35.4474 105.58 35.4224C105.693 35.3974 105.796 35.336 105.871 35.2475C105.947 35.159 105.991 35.0482 105.998 34.9321C106.004 34.816 105.973 34.7009 105.908 34.6043Z" fill="#CCCCCC"/>
</g>
<defs>
<clipPath id="clip0_606_9719">
<rect width="121" height="117.597" fill="white" transform="translate(0 0.183594)"/>
</clipPath>
</defs>
</svg>
