<svg width="350" height="233" viewBox="0 0 350 233" fill="none" xmlns="http://www.w3.org/2000/svg">
<g clip-path="url(#clip0_606_11878)">
<path d="M222.285 129.4C223.509 129.144 224.584 128.417 225.278 127.375C225.972 126.334 226.228 125.062 225.992 123.833C225.939 123.561 225.863 123.295 225.763 123.037L238.484 112.071L230.167 109.719L219.362 120.493C218.227 121.034 217.351 122 216.923 123.182C216.495 124.365 216.549 125.668 217.074 126.811C217.52 127.769 218.279 128.548 219.225 129.018C220.172 129.489 221.251 129.623 222.285 129.4Z" fill="#FFB6B6"/>
<path d="M304.889 207.165L305.351 196.769C310.171 194.193 315.547 192.832 321.012 192.805C313.491 198.954 314.431 210.808 309.331 219.078C307.721 221.645 305.554 223.816 302.99 225.432C300.426 227.048 297.532 228.066 294.521 228.41L288.227 232.264C287.363 227.449 287.554 222.504 288.785 217.77C290.017 213.036 292.26 208.625 295.36 204.841C297.12 202.736 299.139 200.86 301.368 199.259C302.875 203.234 304.889 207.165 304.889 207.165Z" fill="#F2F2F2"/>
<path d="M288.669 226.915L282.969 226.915L280.258 204.932L288.67 204.932L288.669 226.915Z" fill="#FFB6B6"/>
<path d="M290.123 232.439L271.746 232.438V232.205C271.746 230.308 272.5 228.489 273.841 227.148C275.183 225.806 277.002 225.053 278.899 225.053H278.9L282.256 222.506L288.52 225.053L290.124 225.053L290.123 232.439Z" fill="#2F2E41"/>
<path d="M262.192 226.915L256.493 226.915L253.781 204.932L262.193 204.932L262.192 226.915Z" fill="#FFB6B6"/>
<path d="M263.647 232.439L245.27 232.438V232.205C245.27 230.308 246.023 228.489 247.365 227.148C248.706 225.806 250.525 225.053 252.422 225.053H252.423L255.78 222.506L262.043 225.053L263.647 225.053L263.647 232.439Z" fill="#2F2E41"/>
<path d="M259.724 106.729L296.796 107.655C303.836 111.479 303.943 119.756 301.636 129.583C301.636 129.583 302.415 135.424 300.858 136.982C299.3 138.539 298.521 138.539 299.3 141.265C300.079 143.991 295.964 148.443 296.464 148.942C296.964 149.442 298.132 152.168 298.132 152.168L294.238 174.363C294.238 174.363 291.512 212.913 290.733 213.692C289.955 214.47 289.176 213.692 289.955 215.638C290.733 217.585 291.512 216.807 290.733 217.585C290.044 218.329 289.394 219.109 288.786 219.922H279.372C279.372 219.922 278.662 216.028 278.662 215.638C278.662 215.249 277.883 212.913 277.883 212.523C277.883 212.134 278.572 211.446 278.572 211.446C278.81 210.654 278.97 209.841 279.052 209.019C279.052 208.24 281.388 178.257 281.388 178.257L276.715 139.318L265.423 177.478C265.423 177.478 265.423 210.966 264.644 211.745C263.865 212.523 263.865 212.134 264.255 213.692C264.644 215.249 266.202 214.86 265.034 216.028C263.865 217.196 263.476 215.249 263.865 217.196L264.255 219.143L252.573 219.31C252.573 219.31 251.016 216.028 251.794 214.86C252.573 213.692 252.526 214.01 251.576 212.099C250.626 210.187 250.237 209.798 250.626 209.408C251.016 209.019 251.016 206.948 251.016 206.948L252.963 169.69C252.963 169.69 253.352 130.362 253.352 129.194C253.381 128.593 253.271 127.993 253.028 127.442V125.856L254.52 120.238L259.724 106.729Z" fill="#2F2E41"/>
<path d="M221.855 116.752L228.121 121.804L262.276 95.3291L260.255 49.25C258.334 50.7867 256.737 52.689 255.556 54.8469C254.375 57.0048 253.633 59.3755 253.374 61.8217L247.522 87.8514L221.855 116.752Z" fill="#E6E6E6"/>
<path d="M254.191 118.369C266.281 119.914 277.42 115.233 287.942 111.7C292.692 110.105 297.478 111.77 301.887 109.072C299.98 90.2904 301.832 69.134 305.882 46.5883C306.113 45.312 305.872 43.9952 305.204 42.8835C304.536 41.7719 303.486 40.9414 302.25 40.5469L289.198 36.8022L285.179 32.3691L274.801 35.0038L271.168 41.5706L258.683 50.0064C257.954 50.4985 257.383 51.1905 257.039 51.9994C256.694 52.8083 256.59 53.6995 256.74 54.566C260.491 75.7694 259.621 97.5325 254.191 118.369Z" fill="#E6E6E6"/>
<path d="M292.777 124.183C293.885 123.602 294.721 122.609 295.104 121.418C295.488 120.227 295.387 118.933 294.825 117.815C294.7 117.568 294.554 117.333 294.387 117.112L303.633 103.092L294.99 103.098L287.535 116.411C286.591 117.241 286.012 118.41 285.922 119.664C285.833 120.919 286.241 122.158 287.058 123.114C287.748 123.914 288.691 124.456 289.73 124.65C290.769 124.845 291.844 124.68 292.777 124.183Z" fill="#FFB6B6"/>
<path d="M290.164 111.093L295.823 118.369L315.629 88.8617L313.916 58.8847C313.698 55.0667 312.517 51.3659 310.485 48.1265C308.452 44.8872 305.633 42.2146 302.29 40.3574L302.694 86.4365L290.164 111.093Z" fill="#E6E6E6"/>
<path d="M275.947 30.654C282.942 30.654 288.613 24.9833 288.613 17.9882C288.613 10.993 282.942 5.32227 275.947 5.32227C268.952 5.32227 263.281 10.993 263.281 17.9882C263.281 24.9833 268.952 30.654 275.947 30.654Z" fill="#FFB6B6"/>
<path d="M267.875 10.5544C268.365 10.5583 268.853 10.6223 269.327 10.745C270.263 10.9699 271.213 11.1292 272.17 11.2217C275.103 11.4976 277.858 12.7481 279.996 14.7735C282.134 16.7989 283.532 19.4823 283.966 22.3953C284.702 21.7536 286.376 20.5732 287.749 21.6702C287.77 21.6876 287.782 21.6966 287.83 21.6737C288.742 21.2413 290.36 15.9183 290.409 11.2314C290.435 8.74384 290.044 5.5673 288.032 4.56137L287.926 4.50837L287.898 4.39317C287.763 3.8336 286.262 2.87842 283.652 2.13498C278.908 0.783941 271.838 -1.8479 267.856 2.02531C267.555 3.33106 266.575 6.12537 265.585 6.44211C264.488 6.79268 263.541 7.09524 263.392 8.4403C263.267 10.3544 263.276 12.2749 263.419 14.1878C263.791 13.0173 264.52 11.9928 265.504 11.2586C266.204 10.7874 267.032 10.5416 267.875 10.5544Z" fill="#2F2E41"/>
<path d="M349.953 232.518C349.953 232.581 349.941 232.644 349.917 232.702C349.893 232.761 349.857 232.814 349.813 232.859C349.768 232.903 349.715 232.939 349.656 232.963C349.598 232.987 349.535 232.999 349.472 232.999H0.527877C0.400308 232.999 0.277968 232.948 0.187762 232.858C0.0975573 232.768 0.046875 232.646 0.046875 232.518C0.046875 232.391 0.0975573 232.268 0.187762 232.178C0.277968 232.088 0.400308 232.037 0.527877 232.037H349.472C349.535 232.037 349.598 232.049 349.656 232.073C349.715 232.097 349.768 232.133 349.813 232.178C349.857 232.222 349.893 232.275 349.917 232.334C349.941 232.392 349.953 232.455 349.953 232.518Z" fill="#CCCCCC"/>
<path d="M144.459 40.8749L96.9141 51.5714C95.6402 51.8595 94.5327 52.6412 93.8344 53.7449C93.1361 54.8485 92.9042 56.1841 93.1893 57.4586L106.227 115.407L162.088 102.839C162.547 102.737 162.967 102.506 163.298 102.172L150.346 44.5996C150.058 43.3258 149.276 42.2182 148.172 41.52C147.069 40.8217 145.733 40.5897 144.459 40.8749Z" fill="#E6E6E6"/>
<path d="M127.19 48.854L101.134 54.7159C99.974 54.9781 98.9653 55.6896 98.3293 56.6945C97.6932 57.6993 97.4816 58.9154 97.7409 60.076L109.998 114.559L159.612 103.397L150.685 63.7193C149.535 58.6354 146.416 54.2152 142.011 51.4284C137.606 48.6416 132.276 47.7158 127.19 48.854Z" fill="white"/>
<path d="M150.071 100.459L117.363 107.818C117.222 107.849 117.09 107.908 116.972 107.99C116.855 108.073 116.755 108.178 116.678 108.299C116.601 108.42 116.548 108.556 116.524 108.697C116.499 108.839 116.503 108.984 116.534 109.124C116.566 109.264 116.625 109.397 116.708 109.514C116.791 109.632 116.896 109.732 117.017 109.808C117.139 109.885 117.274 109.937 117.416 109.961C117.557 109.986 117.702 109.982 117.842 109.95L150.551 102.591C150.691 102.56 150.824 102.501 150.942 102.419C151.06 102.336 151.16 102.231 151.237 102.11C151.314 101.988 151.366 101.853 151.391 101.711C151.415 101.57 151.412 101.425 151.38 101.285C151.349 101.144 151.29 101.012 151.207 100.894C151.124 100.777 151.019 100.677 150.897 100.6C150.776 100.523 150.64 100.471 150.498 100.447C150.357 100.423 150.212 100.427 150.071 100.459Z" fill="#E4E4E4"/>
<path d="M149.121 96.2435L116.412 103.602C116.129 103.666 115.883 103.839 115.728 104.085C115.573 104.33 115.522 104.626 115.585 104.909C115.649 105.193 115.822 105.439 116.068 105.594C116.313 105.749 116.61 105.8 116.893 105.737L149.601 98.3778C149.741 98.3462 149.874 98.2874 149.991 98.2047C150.109 98.1219 150.209 98.0168 150.285 97.8954C150.362 97.7741 150.414 97.6387 150.439 97.4972C150.463 97.3556 150.46 97.2107 150.428 97.0705C150.397 96.9304 150.338 96.7978 150.255 96.6804C150.172 96.563 150.067 96.4631 149.946 96.3863C149.825 96.3095 149.689 96.2573 149.548 96.2328C149.406 96.2083 149.261 96.2119 149.121 96.2435Z" fill="#E4E4E4"/>
<path d="M129.645 96.1972L115.466 99.3871C115.183 99.4508 114.938 99.6241 114.783 99.869C114.628 100.114 114.576 100.41 114.64 100.693C114.704 100.976 114.877 101.222 115.122 101.377C115.367 101.532 115.663 101.583 115.946 101.519L130.125 98.3294C130.265 98.2982 130.398 98.2396 130.515 98.1571C130.633 98.0745 130.733 97.9695 130.81 97.8481C130.887 97.7268 130.94 97.5914 130.964 97.4498C130.989 97.3081 130.985 97.163 130.954 97.0228C130.922 96.8825 130.863 96.7499 130.78 96.6325C130.697 96.515 130.592 96.4151 130.471 96.3384C130.349 96.2617 130.213 96.2098 130.072 96.1856C129.93 96.1613 129.785 96.1653 129.645 96.1972Z" fill="#E4E4E4"/>
<path d="M146.187 83.1985L113.479 90.5573C113.339 90.5889 113.206 90.6477 113.089 90.7304C112.971 90.8132 112.871 90.9183 112.794 91.0397C112.639 91.2848 112.588 91.5816 112.652 91.8646C112.715 92.1476 112.889 92.3937 113.134 92.5488C113.379 92.7039 113.676 92.7553 113.959 92.6916L146.668 85.3329C146.808 85.3013 146.94 85.2425 147.058 85.1597C147.175 85.077 147.275 84.9719 147.352 84.8505C147.429 84.7291 147.481 84.5938 147.505 84.4523C147.53 84.3107 147.526 84.1657 147.495 84.0256C147.463 83.8855 147.404 83.7529 147.322 83.6355C147.239 83.5181 147.134 83.4181 147.012 83.3413C146.891 83.2645 146.756 83.2124 146.614 83.1879C146.473 83.1634 146.328 83.167 146.187 83.1985Z" fill="#E4E4E4"/>
<path d="M145.239 78.9859L112.531 86.3446C112.39 86.3759 112.258 86.4345 112.14 86.5171C112.023 86.5997 111.923 86.7047 111.846 86.8261C111.769 86.9474 111.716 87.0827 111.692 87.2243C111.667 87.3658 111.671 87.5108 111.702 87.651C111.734 87.7912 111.793 87.9237 111.876 88.0411C111.958 88.1585 112.064 88.2584 112.185 88.3351C112.307 88.4118 112.442 88.4638 112.584 88.4881C112.725 88.5124 112.87 88.5086 113.01 88.4768L145.719 81.118C145.859 81.0866 145.992 81.0279 146.109 80.9453C146.227 80.8626 146.327 80.7577 146.403 80.6364C146.48 80.5151 146.532 80.3798 146.557 80.2383C146.581 80.0969 146.578 79.9519 146.546 79.8119C146.515 79.6718 146.456 79.5393 146.373 79.4219C146.29 79.3046 146.185 79.2047 146.064 79.128C145.943 79.0513 145.807 78.9993 145.666 78.9749C145.524 78.9505 145.379 78.9542 145.239 78.9859Z" fill="#E4E4E4"/>
<path d="M125.759 78.9368L111.58 82.1267C111.44 82.1583 111.308 82.2171 111.19 82.2999C111.073 82.3826 110.973 82.4877 110.896 82.6091C110.819 82.7305 110.767 82.8658 110.743 83.0073C110.718 83.1489 110.722 83.2938 110.753 83.434C110.785 83.5741 110.844 83.7067 110.926 83.8241C111.009 83.9415 111.114 84.0415 111.236 84.1183C111.357 84.1951 111.492 84.2472 111.634 84.2717C111.775 84.2962 111.92 84.2926 112.06 84.2611L126.239 81.0711C126.379 81.0396 126.512 80.9808 126.629 80.898C126.747 80.8153 126.847 80.7102 126.923 80.5888C127 80.4674 127.052 80.3321 127.077 80.1905C127.101 80.049 127.098 79.904 127.066 79.7639C127.035 79.6238 126.976 79.4912 126.893 79.3738C126.81 79.2564 126.705 79.1564 126.584 79.0796C126.462 79.0028 126.327 78.9507 126.186 78.9262C126.044 78.9017 125.899 78.9053 125.759 78.9368Z" fill="#E4E4E4"/>
<path d="M142.305 65.9407L109.596 73.2995C109.313 73.3632 109.067 73.5367 108.912 73.7819C108.757 74.027 108.705 74.3237 108.769 74.6068C108.833 74.8898 109.006 75.1359 109.251 75.291C109.496 75.4461 109.793 75.4975 110.076 75.4338L142.785 68.075C142.925 68.0435 143.058 67.9847 143.175 67.9019C143.292 67.8192 143.392 67.7141 143.469 67.5927C143.546 67.4713 143.598 67.336 143.623 67.1945C143.647 67.0529 143.643 66.9079 143.612 66.7678C143.58 66.6277 143.521 66.4951 143.439 66.3777C143.356 66.2603 143.251 66.1603 143.13 66.0835C143.008 66.0067 142.873 65.9546 142.731 65.9301C142.59 65.9056 142.445 65.9092 142.305 65.9407Z" fill="#E6E6E6"/>
<path d="M141.355 61.7259L108.647 69.0847C108.507 69.1162 108.374 69.175 108.257 69.2578C108.139 69.3405 108.039 69.4456 107.962 69.567C107.807 69.8122 107.756 70.1089 107.82 70.3919C107.883 70.6749 108.057 70.9211 108.302 71.0762C108.547 71.2313 108.844 71.2827 109.127 71.219L141.836 63.8602C141.976 63.8287 142.108 63.7699 142.226 63.6871C142.343 63.6043 142.443 63.4993 142.52 63.3779C142.597 63.2565 142.649 63.1211 142.673 62.9796C142.698 62.8381 142.694 62.6931 142.663 62.553C142.631 62.4128 142.572 62.2803 142.49 62.1629C142.407 62.0454 142.302 61.9455 142.18 61.8687C142.059 61.7919 141.924 61.7397 141.782 61.7152C141.64 61.6907 141.496 61.6944 141.355 61.7259Z" fill="#E6E6E6"/>
<path d="M121.876 61.6771L107.697 64.867C107.414 64.9306 107.168 65.1041 107.013 65.3493C106.858 65.5945 106.807 65.8912 106.87 66.1742C106.934 66.4573 107.108 66.7034 107.353 66.8585C107.598 67.0136 107.895 67.065 108.178 67.0013L122.356 63.8114C122.497 63.7798 122.629 63.721 122.746 63.6383C122.864 63.5555 122.964 63.4504 123.041 63.329C123.117 63.2076 123.17 63.0723 123.194 62.9308C123.219 62.7892 123.215 62.6443 123.183 62.5041C123.152 62.364 123.093 62.2314 123.01 62.114C122.928 61.9966 122.822 61.8966 122.701 61.8198C122.58 61.743 122.444 61.6909 122.303 61.6664C122.161 61.6419 122.016 61.6455 121.876 61.6771Z" fill="#E6E6E6"/>
<path d="M49.6065 108.109C49.2966 108.11 48.9994 108.233 48.7803 108.452C48.5611 108.671 48.4378 108.968 48.4375 109.278V230.154C48.4378 230.464 48.5611 230.761 48.7803 230.98C48.9994 231.2 49.2965 231.323 49.6065 231.323H201.161C201.471 231.323 201.768 231.2 201.987 230.98C202.206 230.761 202.329 230.464 202.329 230.154V128.681C202.329 128.372 202.206 128.074 201.987 127.855C201.768 127.636 201.471 127.513 201.161 127.512H114.178C113.295 127.513 112.444 127.184 111.791 126.59L92.2361 108.822C91.7316 108.363 91.0739 108.109 90.3919 108.109H49.6065Z" fill="#3F3D56"/>
<path d="M230.474 76.4927L149.325 41.6055C147.149 40.6731 144.692 40.6417 142.493 41.5184C140.295 42.3951 138.533 44.1082 137.596 46.2818L95.0742 145.188L190.419 186.179C191.201 186.518 192.064 186.624 192.905 186.486L235.15 88.2222C236.083 86.0463 236.114 83.5895 235.237 81.3905C234.361 79.1916 232.648 77.4302 230.474 76.4927Z" fill="#E6E6E6"/>
<path d="M196.64 69.8286L152.168 50.7095C150.187 49.8601 147.95 49.8311 145.947 50.6288C143.945 51.4266 142.34 52.9861 141.486 54.9651L101.508 147.956L186.188 184.361L215.303 116.64C219.024 107.957 219.149 98.1513 215.65 89.3755C212.152 80.5997 205.315 73.57 196.64 69.8286Z" fill="white"/>
<path d="M175.312 169.9L119.485 145.899C119.246 145.795 118.988 145.74 118.728 145.737C118.468 145.733 118.209 145.78 117.967 145.877C117.725 145.973 117.505 146.116 117.318 146.297C117.132 146.479 116.983 146.695 116.88 146.935C116.777 147.174 116.722 147.431 116.719 147.691C116.716 147.952 116.764 148.21 116.86 148.452C116.957 148.694 117.1 148.914 117.282 149.1C117.464 149.287 117.681 149.435 117.92 149.538L173.747 173.539C173.986 173.642 174.243 173.697 174.504 173.701C174.764 173.705 175.023 173.657 175.264 173.561C175.506 173.465 175.727 173.322 175.914 173.14C176.1 172.959 176.249 172.742 176.352 172.503C176.455 172.264 176.51 172.006 176.513 171.746C176.516 171.486 176.468 171.227 176.372 170.986C176.275 170.744 176.132 170.523 175.95 170.337C175.768 170.151 175.551 170.002 175.312 169.9Z" fill="#E4E4E4"/>
<path d="M178.409 162.705L122.581 138.704C122.098 138.496 121.553 138.489 121.064 138.684C120.576 138.879 120.185 139.26 119.978 139.743C119.77 140.225 119.763 140.771 119.957 141.259C120.152 141.748 120.532 142.139 121.015 142.347L176.842 166.348C177.082 166.451 177.339 166.505 177.599 166.509C177.859 166.512 178.118 166.464 178.36 166.368C178.602 166.272 178.822 166.128 179.009 165.947C179.195 165.765 179.344 165.549 179.447 165.309C179.55 165.07 179.605 164.813 179.608 164.553C179.611 164.292 179.564 164.034 179.467 163.792C179.371 163.55 179.228 163.33 179.046 163.143C178.864 162.957 178.648 162.808 178.409 162.705Z" fill="#E4E4E4"/>
<path d="M149.871 141.913L125.671 131.509C125.432 131.406 125.175 131.351 124.915 131.348C124.654 131.344 124.396 131.392 124.154 131.488C123.912 131.584 123.692 131.727 123.505 131.909C123.319 132.09 123.17 132.307 123.067 132.546C122.964 132.785 122.91 133.042 122.906 133.302C122.903 133.562 122.951 133.821 123.047 134.063C123.144 134.304 123.287 134.525 123.469 134.711C123.65 134.897 123.867 135.046 124.106 135.148L148.306 145.553C148.545 145.656 148.802 145.71 149.063 145.714C149.323 145.718 149.581 145.67 149.823 145.574C150.065 145.477 150.285 145.335 150.472 145.153C150.658 144.972 150.807 144.755 150.91 144.516C151.013 144.277 151.067 144.02 151.071 143.76C151.074 143.499 151.026 143.241 150.93 142.999C150.833 142.758 150.69 142.537 150.508 142.351C150.327 142.165 150.11 142.016 149.871 141.913Z" fill="#E4E4E4"/>
<path d="M187.978 140.443L132.15 116.442C131.667 116.235 131.122 116.228 130.634 116.423C130.146 116.617 129.755 116.998 129.548 117.481C129.34 117.964 129.333 118.509 129.527 118.997C129.722 119.485 130.102 119.876 130.584 120.084L186.412 144.085C186.651 144.189 186.908 144.244 187.169 144.248C187.429 144.251 187.688 144.204 187.93 144.107C188.172 144.011 188.393 143.868 188.58 143.686C188.767 143.504 188.916 143.288 189.019 143.048C189.122 142.809 189.176 142.551 189.18 142.291C189.183 142.03 189.135 141.772 189.038 141.53C188.942 141.288 188.798 141.067 188.616 140.881C188.434 140.694 188.217 140.545 187.978 140.443Z" fill="#E4E4E4"/>
<path d="M191.07 133.249L135.242 109.248C135.003 109.145 134.746 109.09 134.486 109.086C134.226 109.082 133.967 109.13 133.725 109.226C133.483 109.322 133.263 109.465 133.076 109.647C132.889 109.828 132.74 110.045 132.638 110.284C132.535 110.523 132.48 110.781 132.477 111.041C132.473 111.301 132.521 111.56 132.618 111.802C132.715 112.043 132.858 112.264 133.04 112.45C133.222 112.636 133.438 112.785 133.678 112.887L189.505 136.888C189.744 136.992 190.001 137.047 190.262 137.05C190.522 137.054 190.78 137.007 191.022 136.91C191.264 136.814 191.485 136.671 191.671 136.49C191.858 136.308 192.007 136.092 192.11 135.852C192.213 135.613 192.267 135.356 192.271 135.096C192.274 134.835 192.226 134.577 192.129 134.335C192.033 134.093 191.89 133.873 191.708 133.687C191.526 133.5 191.309 133.352 191.07 133.249Z" fill="#E4E4E4"/>
<path d="M162.535 112.456L138.335 102.052C137.852 101.844 137.307 101.837 136.818 102.032C136.33 102.227 135.939 102.607 135.732 103.09C135.524 103.573 135.517 104.119 135.711 104.607C135.906 105.095 136.286 105.487 136.769 105.694L160.969 116.098C161.209 116.201 161.466 116.256 161.726 116.26C161.987 116.263 162.245 116.215 162.487 116.119C162.729 116.023 162.95 115.88 163.136 115.698C163.323 115.516 163.472 115.3 163.575 115.06C163.677 114.821 163.732 114.564 163.736 114.304C163.739 114.043 163.691 113.785 163.595 113.543C163.498 113.301 163.355 113.08 163.173 112.894C162.991 112.707 162.775 112.558 162.535 112.456Z" fill="#E4E4E4"/>
<path d="M200.641 110.983L144.814 86.9823C144.331 86.7755 143.786 86.7689 143.298 86.9638C142.81 87.1587 142.419 87.5392 142.212 88.0218C142.004 88.5044 141.997 89.0497 142.191 89.5378C142.385 90.0259 142.765 90.417 143.248 90.6252L199.075 114.626C199.314 114.729 199.571 114.784 199.832 114.788C200.092 114.791 200.351 114.743 200.593 114.647C200.835 114.551 201.055 114.407 201.242 114.226C201.428 114.044 201.577 113.827 201.68 113.588C201.783 113.349 201.838 113.092 201.841 112.831C201.845 112.571 201.797 112.312 201.7 112.071C201.604 111.829 201.461 111.608 201.279 111.422C201.097 111.235 200.88 111.086 200.641 110.983Z" fill="#14B8A6"/>
<path d="M203.735 103.79L147.908 79.7892C147.425 79.5822 146.88 79.5754 146.392 79.7703C145.904 79.9651 145.513 80.3457 145.306 80.8285C145.098 81.3112 145.091 81.8565 145.285 82.3447C145.479 82.8329 145.86 83.224 146.342 83.4321L202.169 107.433C202.409 107.537 202.666 107.592 202.927 107.596C203.188 107.6 203.447 107.553 203.689 107.457C203.932 107.36 204.153 107.217 204.34 107.036C204.527 106.854 204.676 106.637 204.779 106.397C204.882 106.157 204.937 105.9 204.94 105.639C204.944 105.378 204.895 105.119 204.798 104.877C204.701 104.635 204.558 104.414 204.375 104.228C204.193 104.041 203.975 103.893 203.735 103.79Z" fill="#14B8A6"/>
<path d="M175.203 82.9985L151.003 72.5945C150.52 72.387 149.975 72.3799 149.486 72.5747C148.998 72.7695 148.607 73.1502 148.399 73.6332C148.192 74.1161 148.185 74.6617 148.379 75.1501C148.574 75.6384 148.954 76.0295 149.437 76.2373L173.637 86.6414C173.877 86.7443 174.134 86.7991 174.394 86.8027C174.655 86.8062 174.913 86.7585 175.155 86.6621C175.397 86.5657 175.617 86.4225 175.804 86.2409C175.991 86.0592 176.14 85.8426 176.243 85.6033C176.345 85.3641 176.4 85.1069 176.404 84.8465C176.407 84.5861 176.359 84.3275 176.263 84.0856C176.166 83.8438 176.023 83.6232 175.841 83.4367C175.659 83.2502 175.443 83.1013 175.203 82.9985Z" fill="#14B8A6"/>
<path d="M114.951 112.418L67.4063 123.114C66.1324 123.403 65.0249 124.184 64.3266 125.288C63.6283 126.392 63.3963 127.727 63.6815 129.002L76.7187 186.95L132.581 174.382C133.04 174.28 133.46 174.049 133.79 173.715L120.838 116.143C120.55 114.869 119.768 113.761 118.664 113.063C117.561 112.365 116.225 112.133 114.951 112.418Z" fill="#E6E6E6"/>
<path d="M97.6817 120.397L71.6261 126.259C70.4662 126.521 69.4575 127.233 68.8214 128.237C68.1854 129.242 67.9738 130.458 68.2331 131.619L80.4905 186.102L130.104 174.939L121.177 135.262C120.027 130.178 116.908 125.758 112.503 122.971C108.098 120.185 102.768 119.259 97.6817 120.397Z" fill="white"/>
<path d="M120.564 172.004L87.8549 179.363C87.7147 179.394 87.582 179.453 87.4645 179.535C87.3469 179.618 87.2468 179.723 87.1699 179.844C87.0929 179.965 87.0407 180.101 87.0161 180.242C86.9915 180.384 86.9951 180.529 87.0266 180.669C87.0582 180.809 87.1171 180.942 87.1999 181.059C87.2827 181.177 87.3879 181.276 87.5094 181.353C87.6309 181.43 87.7663 181.482 87.9079 181.506C88.0495 181.53 88.1945 181.527 88.3346 181.495L121.043 174.136C121.184 174.105 121.316 174.046 121.434 173.964C121.552 173.881 121.652 173.776 121.729 173.655C121.806 173.533 121.858 173.398 121.883 173.256C121.908 173.115 121.904 172.97 121.872 172.829C121.841 172.689 121.782 172.557 121.699 172.439C121.616 172.322 121.511 172.222 121.389 172.145C121.268 172.068 121.132 172.016 120.991 171.992C120.849 171.968 120.704 171.972 120.564 172.004Z" fill="#E4E4E4"/>
<path d="M119.613 167.786L86.9045 175.145C86.6215 175.209 86.3754 175.382 86.2203 175.628C86.0652 175.873 86.0138 176.169 86.0775 176.452C86.1411 176.736 86.3146 176.982 86.5598 177.137C86.805 177.292 87.1017 177.343 87.3847 177.28L120.093 169.921C120.376 169.857 120.623 169.684 120.778 169.438C120.933 169.193 120.984 168.897 120.92 168.614C120.857 168.33 120.683 168.084 120.438 167.929C120.193 167.774 119.896 167.723 119.613 167.786Z" fill="#E4E4E4"/>
<path d="M100.137 167.74L85.9583 170.93C85.8183 170.962 85.6859 171.02 85.5686 171.103C85.4513 171.186 85.3515 171.291 85.2748 171.412C85.198 171.533 85.146 171.668 85.1215 171.81C85.097 171.951 85.1006 172.096 85.1321 172.236C85.1636 172.376 85.2224 172.508 85.3051 172.626C85.3877 172.743 85.4927 172.843 85.614 172.92C85.7352 172.996 85.8704 173.048 86.0118 173.073C86.1532 173.097 86.298 173.094 86.438 173.062L100.617 169.872C100.757 169.841 100.89 169.783 101.008 169.7C101.125 169.617 101.225 169.512 101.302 169.391C101.379 169.27 101.432 169.134 101.456 168.993C101.481 168.851 101.477 168.706 101.446 168.566C101.414 168.426 101.355 168.293 101.272 168.175C101.19 168.058 101.084 167.958 100.963 167.881C100.841 167.805 100.706 167.753 100.564 167.729C100.422 167.704 100.277 167.708 100.137 167.74Z" fill="#E4E4E4"/>
<path d="M116.68 154.743L83.9709 162.102C83.8308 162.134 83.6982 162.193 83.5808 162.275C83.4634 162.358 83.3634 162.463 83.2866 162.585C83.1315 162.83 83.0802 163.126 83.1439 163.409C83.2075 163.693 83.381 163.939 83.6262 164.094C83.8714 164.249 84.1681 164.3 84.4511 164.237L117.16 156.878C117.443 156.814 117.689 156.641 117.844 156.395C117.999 156.15 118.051 155.854 117.987 155.571C117.923 155.288 117.75 155.041 117.505 154.886C117.259 154.731 116.963 154.68 116.68 154.743Z" fill="#E4E4E4"/>
<path d="M115.732 150.529L83.0229 157.888C82.8827 157.919 82.75 157.977 82.6324 158.06C82.5149 158.143 82.4148 158.248 82.3378 158.369C82.2609 158.49 82.2086 158.626 82.1841 158.767C82.1595 158.909 82.1631 159.054 82.1946 159.194C82.2262 159.334 82.285 159.467 82.3679 159.584C82.4507 159.701 82.5559 159.801 82.6773 159.878C82.7988 159.955 82.9343 160.007 83.0759 160.031C83.2175 160.055 83.3625 160.052 83.5026 160.02L116.211 152.661C116.351 152.63 116.484 152.571 116.601 152.488C116.719 152.406 116.819 152.301 116.896 152.179C116.972 152.058 117.025 151.923 117.049 151.781C117.074 151.64 117.07 151.495 117.038 151.355C117.007 151.215 116.948 151.082 116.865 150.965C116.783 150.848 116.678 150.748 116.556 150.671C116.435 150.594 116.3 150.542 116.158 150.518C116.017 150.493 115.872 150.497 115.732 150.529Z" fill="#E4E4E4"/>
<path d="M96.2551 150.482L82.0764 153.672C81.7934 153.735 81.5472 153.909 81.3921 154.154C81.237 154.399 81.1857 154.696 81.2493 154.979C81.313 155.262 81.4865 155.508 81.7317 155.663C81.9768 155.818 82.2736 155.87 82.5566 155.806L96.7353 152.616C97.0183 152.552 97.2644 152.379 97.4195 152.134C97.5746 151.889 97.626 151.592 97.5623 151.309C97.4987 151.026 97.3251 150.78 97.08 150.625C96.8348 150.469 96.5381 150.418 96.2551 150.482Z" fill="#E4E4E4"/>
<path d="M112.797 137.484L80.0881 144.842C79.948 144.874 79.8154 144.933 79.698 145.016C79.5806 145.098 79.4806 145.203 79.4038 145.325C79.2487 145.57 79.1974 145.867 79.2611 146.15C79.3247 146.433 79.4982 146.679 79.7434 146.834C79.9885 146.989 80.2853 147.04 80.5683 146.977L113.277 139.618C113.417 139.586 113.55 139.528 113.667 139.445C113.784 139.362 113.884 139.257 113.961 139.136C114.038 139.014 114.09 138.879 114.115 138.737C114.139 138.596 114.136 138.451 114.104 138.311C114.073 138.171 114.014 138.038 113.931 137.921C113.848 137.803 113.743 137.703 113.622 137.626C113.5 137.55 113.365 137.498 113.223 137.473C113.082 137.449 112.937 137.452 112.797 137.484Z" fill="#E6E6E6"/>
<path d="M111.848 133.271L79.1389 140.63C78.9988 140.661 78.8662 140.72 78.7488 140.803C78.6314 140.885 78.5314 140.991 78.4546 141.112C78.2995 141.357 78.2482 141.654 78.3118 141.937C78.3755 142.22 78.549 142.466 78.7942 142.621C79.0393 142.776 79.3361 142.828 79.6191 142.764L112.328 135.405C112.611 135.341 112.857 135.168 113.012 134.923C113.167 134.678 113.218 134.381 113.155 134.098C113.091 133.815 112.918 133.569 112.672 133.414C112.427 133.258 112.131 133.207 111.848 133.271Z" fill="#E6E6E6"/>
<path d="M92.3723 133.222L78.1936 136.412C77.9106 136.476 77.6644 136.649 77.5093 136.894C77.3542 137.139 77.3028 137.436 77.3665 137.719C77.4302 138.002 77.6037 138.248 77.8489 138.403C78.094 138.559 78.3908 138.61 78.6738 138.546L92.8525 135.356C92.9926 135.325 93.1252 135.266 93.2426 135.183C93.36 135.1 93.4599 134.995 93.5367 134.874C93.6135 134.753 93.6657 134.617 93.6902 134.476C93.7147 134.334 93.7111 134.189 93.6795 134.049C93.648 133.909 93.5892 133.776 93.5064 133.659C93.4237 133.542 93.3186 133.442 93.1972 133.365C93.0758 133.288 92.9405 133.236 92.7989 133.211C92.6574 133.187 92.5124 133.19 92.3723 133.222Z" fill="#E6E6E6"/>
<path d="M48.6026 139.857C48.4492 139.857 48.2972 139.888 48.1553 139.946C48.0135 140.005 47.8846 140.091 47.7761 140.2C47.6675 140.308 47.5814 140.437 47.5226 140.579C47.4639 140.721 47.4336 140.873 47.4336 141.026C47.4336 141.07 47.4696 231.093 47.4696 231.093C47.5016 231.379 47.6378 231.643 47.8521 231.834C48.0664 232.026 48.3438 232.132 48.6313 232.131H211.433C211.72 232.132 211.998 232.026 212.212 231.834C212.427 231.643 212.563 231.379 212.595 231.093L222.728 141.157C222.747 140.994 222.73 140.828 222.68 140.671C222.631 140.515 222.548 140.37 222.438 140.247C222.329 140.124 222.195 140.025 222.045 139.958C221.895 139.891 221.732 139.857 221.567 139.857L48.6026 139.857Z" fill="#3F3D56"/>
<path d="M60.0929 144.842C58.4412 144.846 56.8578 145.501 55.6848 146.664C54.5117 147.827 53.8434 149.404 53.8242 151.056L54.0275 220.824C54.0203 221.652 54.1771 222.473 54.4889 223.24C54.8007 224.007 55.2613 224.705 55.8441 225.293C56.427 225.88 57.1205 226.347 57.8847 226.666C58.6488 226.984 59.4685 227.148 60.2964 227.148H163.642C175.495 227.156 186.934 222.793 195.772 214.895C204.61 206.997 210.226 196.118 211.545 184.339L215.21 151.813C215.309 150.936 215.222 150.048 214.954 149.207C214.686 148.366 214.243 147.591 213.655 146.933C213.067 146.275 212.347 145.749 211.541 145.388C210.736 145.028 209.863 144.842 208.981 144.842H60.0929ZM218.464 144.842L218.445 144.438H218.464V144.842Z" fill="#14B8A6"/>
<path d="M105.235 197.112H65.2004C64.7867 197.112 64.39 196.948 64.0975 196.655C63.805 196.363 63.6406 195.966 63.6406 195.552C63.6406 195.138 63.805 194.742 64.0975 194.449C64.39 194.157 64.7867 193.992 65.2004 193.992H105.235C107.247 193.964 107.267 197.14 105.235 197.112Z" fill="#E4E4E4"/>
<path d="M159.166 205.27H65.2004C64.7867 205.27 64.39 205.106 64.0975 204.813C63.805 204.521 63.6406 204.124 63.6406 203.71C63.6406 203.297 63.805 202.9 64.0975 202.607C64.39 202.315 64.7867 202.151 65.2004 202.151H159.166C161.178 202.122 161.198 205.299 159.166 205.27Z" fill="#E4E4E4"/>
</g>
<defs>
<clipPath id="clip0_606_11878">
<rect width="349.906" height="233" fill="white" transform="translate(0.046875)"/>
</clipPath>
</defs>
</svg>
