<svg width="327" height="308" viewBox="0 0 327 308" fill="none" xmlns="http://www.w3.org/2000/svg">
<path fill-rule="evenodd" clip-rule="evenodd" d="M0 115.5L77.7087 192.5H326.927L249.219 115.5L0 115.5ZM33.1717 275.147C30.4519 277.826 28.6061 281.259 27.8452 284.997C27.1005 288.735 27.4891 292.6 28.9623 296.114C30.4193 299.627 32.9126 302.643 36.1019 304.76C39.3074 306.878 43.0632 308 46.9001 308H241.172C246.321 308 251.259 305.963 254.901 302.353L326.927 231H77.7087L33.1717 275.147ZM72.026 5.64651L0 77L249.219 77L293.756 32.853C296.475 30.174 298.321 26.7409 299.082 23.0031C299.827 19.2654 299.438 15.3995 297.965 11.8864C296.508 8.37323 294.015 5.35736 290.825 3.23987C287.62 1.12238 283.864 0 280.027 0H85.755C80.6068 0 75.6686 2.03714 72.026 5.64651Z" fill="#14B8A6"/>
</svg>
